<svg width="18" height="19" viewBox="0 0 18 19" fill="none" xmlns="http://www.w3.org/2000/svg">
<path d="M8.99368 10.0157C9.52553 10.0157 10.0522 9.91094 10.5435 9.70741C11.0349 9.50388 11.4814 9.20556 11.8575 8.82948C12.2335 8.4534 12.5319 8.00694 12.7354 7.51557C12.9389 7.0242 13.0437 6.49755 13.0437 5.9657C13.0437 5.43385 12.9389 4.9072 12.7354 4.41583C12.5319 3.92446 12.2335 3.47799 11.8575 3.10192C11.4814 2.72584 11.0349 2.42752 10.5435 2.22399C10.0522 2.02046 9.52553 1.9157 8.99368 1.9157C7.91955 1.9157 6.88942 2.3424 6.12989 3.10192C5.37037 3.86144 4.94368 4.89157 4.94368 5.9657C4.94368 7.03983 5.37037 8.06996 6.12989 8.82948C6.88942 9.589 7.91955 10.0157 8.99368 10.0157ZM8.99998 0.5C10.1855 0.499614 11.3381 0.889348 12.2801 1.60907C13.2221 2.32879 13.9011 3.3385 14.2123 4.4824C14.5236 5.62631 14.4497 6.84084 14.0021 7.9386C13.5546 9.03636 12.7583 9.95634 11.736 10.5566C15.0552 11.5556 17.5482 14.3528 17.9955 17.8268C18.0378 18.1571 17.7921 18.4568 17.4465 18.4973C17.1018 18.5378 16.7868 18.3038 16.7445 17.9735C16.2585 14.2025 12.9924 11.363 9.03148 11.363C5.04898 11.363 1.74058 14.2079 1.25548 17.9735C1.21318 18.3038 0.898178 18.5378 0.553478 18.4973C0.207878 18.4568 -0.0378225 18.1571 0.00447752 17.8268C0.450878 14.3672 2.95738 11.5736 6.28198 10.5656C5.25659 9.96806 4.45662 9.04937 4.00573 7.95158C3.55485 6.85378 3.47817 5.63801 3.78755 4.49227C4.09694 3.34652 4.77515 2.3346 5.71734 1.61297C6.65952 0.891336 7.81319 0.500188 8.99998 0.5Z" fill="black"/>
</svg>
